<?xml version="1.0" encoding="UTF-8" standalone="no"?>
<svg
   width="98"
   height="16"
   role="img"
   version="1.1"
   viewBox="0 0 98 16"
   id="svg14"
   sodipodi:docname="secutils-logo-with-text.svg"
   inkscape:version="1.2.2 (b0a8486541, 2022-12-01)"
   xmlns:inkscape="http://www.inkscape.org/namespaces/inkscape"
   xmlns:sodipodi="http://sodipodi.sourceforge.net/DTD/sodipodi-0.dtd"
   xmlns="http://www.w3.org/2000/svg"
   xmlns:svg="http://www.w3.org/2000/svg">
  <defs
     id="defs18" />
  <sodipodi:namedview
     id="namedview16"
     pagecolor="#1d1e24"
     bordercolor="#000000"
     borderopacity="0.25"
     inkscape:showpageshadow="2"
     inkscape:pageopacity="0"
     inkscape:pagecheckerboard="0"
     inkscape:deskcolor="#d1d1d1"
     showgrid="false"
     inkscape:zoom="13.846939"
     inkscape:cx="49.072217"
     inkscape:cy="8.0884302"
     inkscape:window-width="2560"
     inkscape:window-height="1371"
     inkscape:window-x="0"
     inkscape:window-y="0"
     inkscape:window-maximized="1"
     inkscape:current-layer="text12" />
  <rect
     width="16"
     height="16"
     rx="3"
     fill="#fed047"
     stroke-width="6.8791"
     id="rect2" />
    <path
       aria-label="SU"
       style="font-weight:600;font-size:10.667px;fill:#642340"
       d="m 11.285615,12.000016 q -1.120035,0 -1.7280535,-0.608019 -0.608019,-0.618686 -0.608019,-1.6747191 V 4.106436 h 1.1520355 v 5.6001749 q 0,0.5973521 0.298676,0.9386961 0.298676,0.341344 0.885361,0.341344 0.586685,0 0.885361,-0.341344 0.298676,-0.341344 0.298676,-0.9386961 V 4.106436 h 1.152036 v 5.6108419 q 0,1.0667001 -0.608019,1.6747191 -0.608019,0.608019 -1.728054,0.608019 z m -6.3682027,0 q -1.152036,0 -1.845391,-0.608019 -0.693355,-0.608019 -0.693355,-1.6640521 h 1.130702 q 0,0.5866851 0.384012,0.9280291 0.384012,0.330677 1.024032,0.330677 0.629353,0 0.9920309,-0.341344 0.362678,-0.341344 0.362678,-0.9066951 0,-0.42668 -0.234674,-0.74669 -0.234674,-0.32001 -0.6720209,-0.437347 l -1.120035,-0.298676 q -0.789358,-0.21334 -1.248039,-0.778691 -0.448014,-0.565351 -0.448014,-1.354709 0,-0.64002 0.277342,-1.1093679 0.288009,-0.480015 0.810692,-0.74669 0.522683,-0.266675 1.216038,-0.266675 0.693355,0 1.2160379,0.266675 0.53335,0.266675 0.821359,0.74669 0.298676,0.4693479 0.298676,1.0987009 h -1.130702 q 0,-0.501349 -0.341344,-0.800025 Q 5.3867603,5.002464 4.8534103,5.002464 q -0.53335,0 -0.864027,0.3093429 -0.32001,0.298676 -0.32001,0.789358 0,0.394679 0.21334,0.661354 0.224007,0.266675 0.618686,0.373345 l 1.1520359,0.309343 q 0.810692,0.21334 1.28004,0.832026 0.469348,0.618686 0.469348,1.461379 0,0.6933551 -0.309343,1.2053711 -0.309343,0.501349 -0.864027,0.778691 -0.554684,0.277342 -1.3120409,0.277342 z" />
    <path
       aria-label="SECUTILS.DEV"
       style="font-weight:600;font-size:10.667px;fill:#ffffff"
       d="M 93.160256,12.117347 91.186861,4.3304369 h 1.17337 l 1.258706,5.1841619 q 0.117337,0.469348 0.202673,0.9173622 0.08534,0.448014 0.128004,0.693355 0.04267,-0.245341 0.128004,-0.693355 0.096,-0.4586812 0.21334,-0.9280292 l 1.205371,-5.1734949 h 1.184037 l -1.984062,7.7869101 z m -7.829578,0 V 4.3304369 h 4.576143 v 1.024032 H 86.46138 v 2.2187359 h 3.072096 v 0.992031 H 86.46138 v 2.5280792 h 3.445441 v 1.024032 z m -6.517544,0 V 4.3304369 h 2.176067 q 0.768024,0 1.333375,0.298676 0.565351,0.288009 0.874694,0.832026 0.32001,0.53335 0.32001,1.248039 v 3.0080939 q 0,0.7360232 -0.32001,1.2693732 -0.309343,0.53335 -0.874694,0.832026 -0.565351,0.298676 -1.333375,0.298676 z m 1.152035,-1.034699 h 1.024032 q 0.629353,0 1.002698,-0.362678 0.373345,-0.362678 0.373345,-1.0026982 V 6.7091779 q 0,-0.618686 -0.373345,-0.981364 -0.373345,-0.373345 -1.002698,-0.373345 h -1.024032 z m -5.2375,1.141369 q -0.416013,0 -0.682688,-0.245341 -0.256008,-0.256008 -0.256008,-0.672021 0,-0.416013 0.256008,-0.672021 0.266675,-0.266675 0.682688,-0.266675 0.416013,0 0.672021,0.266675 0.266675,0.256008 0.266675,0.672021 0,0.416013 -0.266675,0.672021 -0.256008,0.245341 -0.672021,0.245341 z m -6.368203,0 q -1.152036,0 -1.845391,-0.608019 Q 65.82072,11.007979 65.82072,9.9519458 h 1.130702 q 0,0.5866852 0.384012,0.9280292 0.384012,0.330677 1.024032,0.330677 0.629353,0 0.992031,-0.341344 0.362678,-0.341344 0.362678,-0.9066952 0,-0.42668 -0.234674,-0.74669 -0.234674,-0.32001 -0.672021,-0.437347 l -1.120035,-0.298676 q -0.789358,-0.21334 -1.248039,-0.778691 -0.448014,-0.565351 -0.448014,-1.3547089 0,-0.64002 0.277342,-1.109368 0.288009,-0.480015 0.810692,-0.74669 0.522683,-0.266675 1.216038,-0.266675 0.693355,0 1.216038,0.266675 0.53335,0.266675 0.821359,0.74669 0.298676,0.469348 0.298676,1.098701 h -1.130702 q 0,-0.501349 -0.341344,-0.800025 -0.330677,-0.309343 -0.864027,-0.309343 -0.53335,0 -0.864027,0.309343 -0.32001,0.298676 -0.32001,0.789358 0,0.394679 0.21334,0.661354 0.224007,0.2666749 0.618686,0.3733449 l 1.152036,0.309343 q 0.810692,0.21334 1.28004,0.832026 0.469348,0.618686 0.469348,1.461379 0,0.6933552 -0.309343,1.2053712 -0.309343,0.501349 -0.864027,0.778691 -0.554684,0.277342 -1.312041,0.277342 z m -8.288263,-0.10667 V 4.3304369 h 1.152036 v 6.7415441 h 3.402773 v 1.045366 z m -6.698879,0 v -1.045366 h 1.568049 V 5.3758029 h -1.568049 v -1.045366 h 4.320135 v 1.045366 h -1.578716 v 5.6961781 h 1.578716 v 1.045366 z m -4.82149,0 V 5.3758029 h -2.080065 v -1.045366 h 5.322833 v 1.045366 H 49.70287 v 6.7415441 z m -5.824186,0.10667 q -1.120035,0 -1.728054,-0.608019 -0.608019,-0.618686 -0.608019,-1.6747192 V 4.3304369 h 1.152036 v 5.6001749 q 0,0.5973522 0.298676,0.9386962 0.298676,0.341344 0.885361,0.341344 0.586685,0 0.885361,-0.341344 0.298676,-0.341344 0.298676,-0.9386962 V 4.3304369 h 1.152036 v 5.6108419 q 0,1.0667002 -0.608019,1.6747192 -0.608019,0.608019 -1.728054,0.608019 z m -6.314868,0 q -1.098701,0 -1.749388,-0.608019 -0.64002,-0.618686 -0.64002,-1.6640522 V 6.4958379 q 0,-1.056033 0.64002,-1.664052 0.650687,-0.608019 1.749388,-0.608019 1.088034,0 1.728054,0.618686 0.650687,0.608019 0.650687,1.653385 h -1.152036 q 0,-0.608019 -0.330677,-0.928029 -0.32001,-0.32001 -0.896028,-0.32001 -0.586685,0 -0.917362,0.32001 -0.32001,0.32001 -0.32001,0.928029 v 3.4561079 q 0,0.6080192 0.32001,0.9280292 0.330677,0.32001 0.917362,0.32001 0.576018,0 0.896028,-0.32001 0.330677,-0.32001 0.330677,-0.9280292 h 1.152036 q 0,1.0453662 -0.650687,1.6640522 -0.64002,0.608019 -1.728054,0.608019 z m -8.682942,-0.10667 V 4.3304369 h 4.576142 v 1.024032 h -3.44544 v 2.2187359 h 3.072095 v 0.992031 H 28.85954 v 2.5280792 h 3.44544 v 1.024032 z m -4.170802,0.10667 q -1.152036,0 -1.845391,-0.608019 Q 21.01929,11.007979 21.01929,9.9519458 h 1.130702 q 0,0.5866852 0.384012,0.9280292 0.384012,0.330677 1.024032,0.330677 0.629353,0 0.992031,-0.341344 0.362678,-0.341344 0.362678,-0.9066952 0,-0.42668 -0.234674,-0.74669 -0.234674,-0.32001 -0.672021,-0.437347 l -1.120035,-0.298676 q -0.789358,-0.21334 -1.248039,-0.778691 -0.448014,-0.565351 -0.448014,-1.3547089 0,-0.64002 0.277342,-1.109368 0.288009,-0.480015 0.810692,-0.74669 0.522683,-0.266675 1.216038,-0.266675 0.693355,0 1.216038,0.266675 0.53335,0.266675 0.821359,0.74669 0.298676,0.469348 0.298676,1.098701 h -1.130702 q 0,-0.501349 -0.341344,-0.800025 -0.330677,-0.309343 -0.864027,-0.309343 -0.53335,0 -0.864027,0.309343 -0.32001,0.298676 -0.32001,0.789358 0,0.394679 0.21334,0.661354 0.224007,0.2666749 0.618686,0.3733449 l 1.152036,0.309343 q 0.810692,0.21334 1.28004,0.832026 0.469348,0.618686 0.469348,1.461379 0,0.6933552 -0.309343,1.2053712 -0.309343,0.501349 -0.864027,0.778691 -0.554684,0.277342 -1.312041,0.277342 z" />
</svg>
