<?xml version="1.0" encoding="UTF-8" standalone="no"?>
<svg
    width="16"
    height="16"
    viewBox="0 0 16 16"
    role="img"
    version="1.1"
    xmlns="http://www.w3.org/2000/svg">
  <rect
      style="fill:#fed047;fill-opacity:1;stroke-width:6.87914"
      width="16"
      height="16"
      x="0"
      y="0"
      rx="3"/>
  <path
      d="M 4,5 V 4.2 C 4,1.88 5.79,0 8,0 c 2.21,0 4,1.88 4,4.2 V 5 h 1.143 C 13.616,5 14,5.448 14,6 v 9 c 0,0.552 -0.384,1 -0.857,1 H 2.857 C 2.384,16 2,15.552 2,15 V 6 C 2,5.448 2.384,5 2.857,5 Z M 3,15 H 13 V 6 H 3 Z M 11,4.36 C 11,2.504 9.657,1 8,1 6.343,1 5,2.504 5,4.36 V 5 h 6 z"
      style="display:none;fill:#642340;fill-opacity:1"/>
  <text
      xml:space="preserve"
      style="font-weight:300;font-size:25.3333px;font-family:'JetBrains Mono NL';-inkscape-font-specification:'JetBrains Mono NL, Light';fill:#fed047"
      x="1.6853113"
      y="11.893346">
      <tspan
          x="1.6853113"
          y="11.893346"
          style="font-style:normal;font-variant:normal;font-weight:600;font-stretch:normal;font-size:10.6667px;font-family:'JetBrains Mono NL';-inkscape-font-specification:'JetBrains Mono NL, Semi-Bold';font-variant-ligatures:normal;font-variant-caps:normal;font-variant-numeric:normal;font-variant-east-asian:normal;fill:#642340;fill-opacity:1">SU</tspan></text>
</svg>
