<?xml version="1.0" encoding="UTF-8"?>
<svg width="98" height="16" role="img" version="1.1" viewBox="0 0 98 16" xmlns="http://www.w3.org/2000/svg">
 <rect width="16" height="16" rx="3" fill="#fed047" stroke-width="6.8791"/>
 <path d="m14.546 52.213q-1.12 0-1.7281-0.60802-0.60802-0.61869-0.60802-1.6747v-5.6108h1.152v5.6002q0 0.59735 0.29868 0.9387t0.88536 0.34134 0.88536-0.34134 0.29868-0.9387v-5.6002h1.152v5.6108q0 1.0667-0.60802 1.6747t-1.7281 0.60802zm-6.3682 0q-1.152 0-1.8454-0.60802t-0.69336-1.6641h1.1307q0 0.58668 0.38401 0.92803 0.38401 0.33068 1.024 0.33068 0.62935 0 0.99203-0.34134 0.36268-0.34134 0.36268-0.9067 0-0.42668-0.23467-0.74669t-0.67202-0.43735l-1.12-0.29868q-0.78936-0.21334-1.248-0.77869-0.44801-0.56535-0.44801-1.3547 0-0.64002 0.27734-1.1094 0.28801-0.48002 0.81069-0.74669t1.216-0.26668 1.216 0.26668q0.53335 0.26668 0.82136 0.74669 0.29868 0.46935 0.29868 1.0987h-1.1307q0-0.50135-0.34134-0.80002-0.33068-0.30934-0.86403-0.30934t-0.86403 0.30934q-0.32001 0.29868-0.32001 0.78936 0 0.39468 0.21334 0.66135 0.22401 0.26668 0.61869 0.37334l1.152 0.30934q0.81069 0.21334 1.28 0.83203 0.46935 0.61869 0.46935 1.4614 0 0.69336-0.30934 1.2054-0.30934 0.50135-0.86403 0.77869-0.55468 0.27734-1.312 0.27734z" display="none" fill="#642340" aria-label="SU"/>
 <path d="m93.16 12.117-1.9734-7.7869h1.1734l1.2587 5.1842q0.11734 0.46935 0.20267 0.91736 0.08534 0.44801 0.128 0.69336 0.04267-0.24534 0.128-0.69336 0.096-0.45868 0.21334-0.92803l1.2054-5.1735h1.184l-1.9841 7.7869zm-7.8296 0v-7.7869h4.5761v1.024h-3.4454v2.2187h3.0721v0.99203h-3.0721v2.5281h3.4454v1.024zm-6.5175 0v-7.7869h2.1761q0.76802 0 1.3334 0.29868 0.56535 0.28801 0.87469 0.83203 0.32001 0.53335 0.32001 1.248v3.0081q0 0.73602-0.32001 1.2694-0.30934 0.53335-0.87469 0.83203t-1.3334 0.29868zm1.152-1.0347h1.024q0.62935 0 1.0027-0.36268t0.37334-1.0027v-3.0081q0-0.61869-0.37334-0.98136-0.37334-0.37334-1.0027-0.37334h-1.024zm-5.2375 1.1414q-0.41601 0-0.68269-0.24534-0.25601-0.25601-0.25601-0.67202t0.25601-0.67202q0.26668-0.26668 0.68269-0.26668t0.67202 0.26668q0.26668 0.25601 0.26668 0.67202t-0.26668 0.67202q-0.25601 0.24534-0.67202 0.24534zm-6.3682 0q-1.152 0-1.8454-0.60802t-0.69336-1.6641h1.1307q0 0.58669 0.38401 0.92803 0.38401 0.33068 1.024 0.33068 0.62935 0 0.99203-0.34134t0.36268-0.9067q0-0.42668-0.23467-0.74669t-0.67202-0.43735l-1.12-0.29868q-0.78936-0.21334-1.248-0.77869-0.44801-0.56535-0.44801-1.3547 0-0.64002 0.27734-1.1094 0.28801-0.48002 0.81069-0.74669t1.216-0.26668 1.216 0.26668q0.53335 0.26668 0.82136 0.74669 0.29868 0.46935 0.29868 1.0987h-1.1307q0-0.50135-0.34134-0.80002-0.33068-0.30934-0.86403-0.30934t-0.86403 0.30934q-0.32001 0.29868-0.32001 0.78936 0 0.39468 0.21334 0.66135 0.22401 0.26667 0.61869 0.37334l1.152 0.30934q0.81069 0.21334 1.28 0.83203t0.46935 1.4614q0 0.69336-0.30934 1.2054-0.30934 0.50135-0.86403 0.77869t-1.312 0.27734zm-8.2883-0.10667v-7.7869h1.152v6.7415h3.4028v1.0454zm-6.6989 0v-1.0454h1.568v-5.6962h-1.568v-1.0454h4.3201v1.0454h-1.5787v5.6962h1.5787v1.0454zm-4.8215 0v-6.7415h-2.0801v-1.0454h5.3228v1.0454h-2.0907v6.7415zm-5.8242 0.10667q-1.12 0-1.7281-0.60802-0.60802-0.61869-0.60802-1.6747v-5.6108h1.152v5.6002q0 0.59735 0.29868 0.9387t0.88536 0.34134 0.88536-0.34134 0.29868-0.9387v-5.6002h1.152v5.6108q0 1.0667-0.60802 1.6747t-1.7281 0.60802zm-6.3149 0q-1.0987 0-1.7494-0.60802-0.64002-0.61869-0.64002-1.6641v-3.4561q0-1.056 0.64002-1.6641 0.65069-0.60802 1.7494-0.60802 1.088 0 1.7281 0.61869 0.65069 0.60802 0.65069 1.6534h-1.152q0-0.60802-0.33068-0.92803-0.32001-0.32001-0.89603-0.32001-0.58668 0-0.91736 0.32001-0.32001 0.32001-0.32001 0.92803v3.4561q0 0.60802 0.32001 0.92803 0.33068 0.32001 0.91736 0.32001 0.57602 0 0.89603-0.32001 0.33068-0.32001 0.33068-0.92803h1.152q0 1.0454-0.65069 1.6641-0.64002 0.60802-1.7281 0.60802zm-8.6829-0.10667v-7.7869h4.5761v1.024h-3.4454v2.2187h3.0721v0.99203h-3.0721v2.5281h3.4454v1.024zm-4.1708 0.10667q-1.152 0-1.8454-0.60802t-0.69336-1.6641h1.1307q0 0.58669 0.38401 0.92803 0.38401 0.33068 1.024 0.33068 0.62935 0 0.99203-0.34134t0.36268-0.9067q0-0.42668-0.23467-0.74669t-0.67202-0.43735l-1.12-0.29868q-0.78936-0.21334-1.248-0.77869-0.44801-0.56535-0.44801-1.3547 0-0.64002 0.27734-1.1094 0.28801-0.48002 0.81069-0.74669t1.216-0.26668 1.216 0.26668q0.53335 0.26668 0.82136 0.74669 0.29868 0.46935 0.29868 1.0987h-1.1307q0-0.50135-0.34134-0.80002-0.33068-0.30934-0.86403-0.30934t-0.86403 0.30934q-0.32001 0.29868-0.32001 0.78936 0 0.39468 0.21334 0.66135 0.22401 0.26667 0.61869 0.37334l1.152 0.30934q0.81069 0.21334 1.28 0.83203t0.46935 1.4614q0 0.69336-0.30934 1.2054-0.30934 0.50135-0.86403 0.77869t-1.312 0.27734z" fill="#777" aria-label="SECUTILS.DEV"/>
 <path d="m11.683 11.364v-0.83607l0.30642-0.09659c0.3856-0.12155 0.72902-0.43064 0.90093-0.81087 0.12661-0.28002 0.12938-0.32257 0.15616-2.3962l0.02727-2.1111 1.5817-1.2962 0.01413 2.8104c0.0119 2.3665 1e-3 2.8627-0.06874 3.141-0.32702 1.3043-1.3403 2.2093-2.6861 2.399l-0.2318 0.03266zm-10.574 0.6744c0.041155-0.05822 0.33253-0.43716 0.64751-0.8421l0.57268-0.73626 1.6243-0.0033c1.7638-0.0036 1.8794-0.02027 2.1025-0.304 0.21606-0.27466 0.11215-0.76119-0.19629-0.91906-0.081984-0.04197-0.76073-0.27615-1.5083-0.52041-1.3842-0.45226-1.5958-0.5462-1.9503-0.86605-0.71056-0.64111-0.91363-1.8336-0.47217-2.7727 0.15873-0.33769 0.57956-0.78536 0.90451-0.96223 0.52017-0.28311 0.78656-0.31106 2.974-0.31193l2.0057-8.157e-4 -0.5685 0.83175-0.5685 0.83175-0.5373 0.034499c-0.29552 0.018976-0.93735 0.037382-1.4263 0.040906-1.1705 0.00844-1.3199 0.080381-1.3199 0.63543 0 0.40848 0.12309 0.48551 1.4229 0.89034 0.61229 0.1907 1.3044 0.41986 1.538 0.50924 1.3224 0.50602 1.8869 2.025 1.2348 3.3229-0.29341 0.584-0.90287 1.0456-1.5667 1.1865-0.18859 0.04005-1.1053 0.06137-2.6382 0.06137-2.3146 0-2.3481-0.0015-2.2744-0.10584zm9.374 0.01952c-0.79345-0.20933-1.5868-0.83191-1.9533-1.5328-0.32279-0.61729-0.39191-1.0307-0.39191-2.3438v-1.1639h1.6362v1.1112c0 1.1984 0.027106 1.3573 0.30252 1.7735 0.17941 0.27111 0.57346 0.54186 0.85388 0.5867l0.20712 0.03312v1.6223l-0.17726-0.0036c-0.09749-2e-3 -0.31224-0.0392-0.47723-0.08273zm-2.3453-6.8995v-1.3136l0.26211 0.20917c0.14416 0.11504 0.51114 0.40551 0.81551 0.64549l0.5534 0.43633 0.00258 0.66812 0.00258 0.66812h-1.6362z" fill="#642340" stroke-width=".054541"/>
</svg>
