<?xml version="1.0" standalone="no"?>
<!DOCTYPE svg PUBLIC "-//W3C//DTD SVG 20010904//EN"
 "http://www.w3.org/TR/2001/REC-SVG-20010904/DTD/svg10.dtd">
<svg version="1.0" xmlns="http://www.w3.org/2000/svg"
 width="700.000000pt" height="700.000000pt" viewBox="0 0 700.000000 700.000000"
 preserveAspectRatio="xMidYMid meet">
<g transform="translate(0.000000,700.000000) scale(0.100000,-0.100000)"
fill="#000000" stroke="none">
<path d="M1990 5239 c-451 -47 -773 -321 -851 -724 -17 -88 -17 -311 0 -390
44 -209 127 -362 272 -500 85 -80 151 -126 264 -182 97 -49 131 -60 460 -158
155 -46 288 -92 330 -114 211 -109 317 -355 260 -600 -41 -174 -178 -304 -376
-358 -88 -24 -308 -24 -399 0 -225 59 -370 207 -402 411 l-12 76 -249 0 -249
0 7 -67 c34 -353 187 -592 476 -743 177 -92 368 -133 624 -133 251 -1 430 37
602 128 347 183 522 522 483 935 -34 365 -233 650 -564 810 -70 34 -197 78
-420 145 -182 54 -345 110 -379 127 -181 97 -280 299 -249 506 29 186 151 319
347 378 75 23 274 26 355 5 203 -50 335 -191 363 -387 l11 -74 248 0 248 0 0
34 c0 117 -52 319 -107 414 -197 343 -598 512 -1093 461z"/>
<path d="M3923 3873 c3 -1470 -1 -1375 68 -1553 47 -122 97 -198 199 -300 103
-104 189 -157 333 -206 287 -98 699 -76 952 51 247 124 392 324 462 635 15 67
17 207 20 1388 l4 1312 -250 0 -250 0 -4 -1292 c-3 -1209 -4 -1297 -21 -1352
-56 -185 -156 -293 -321 -342 -91 -28 -288 -25 -374 5 -123 43 -199 109 -256
220 -64 127 -59 18 -62 1454 l-3 1307 -250 0 -250 0 3 -1327z"/>
</g>
</svg>
